<?xml version="1.0" encoding="UTF-8" standalone="no"?>
<!-- Created with Inkscape (http://www.inkscape.org/) -->

<svg
   width="200mm"
   height="200mm"
   viewBox="0 0 200 200"
   version="1.1"
   id="svg1"
   xml:space="preserve"
   inkscape:version="1.3.2 (091e20e, 2023-11-25, custom)"
   sodipodi:docname="raft.svg"
   xmlns:inkscape="http://www.inkscape.org/namespaces/inkscape"
   xmlns:sodipodi="http://sodipodi.sourceforge.net/DTD/sodipodi-0.dtd"
   xmlns="http://www.w3.org/2000/svg"
   xmlns:svg="http://www.w3.org/2000/svg"><sodipodi:namedview
     id="namedview1"
     pagecolor="#ffffff"
     bordercolor="#000000"
     borderopacity="0.25"
     inkscape:showpageshadow="2"
     inkscape:pageopacity="0.0"
     inkscape:pagecheckerboard="0"
     inkscape:deskcolor="#d1d1d1"
     inkscape:document-units="px"
     inkscape:zoom="0.39653902"
     inkscape:cx="506.8858"
     inkscape:cy="530.84309"
     inkscape:window-width="1920"
     inkscape:window-height="1009"
     inkscape:window-x="-8"
     inkscape:window-y="-8"
     inkscape:window-maximized="1"
     inkscape:current-layer="layer1"
     showgrid="false" /><defs
     id="defs1"><inkscape:path-effect
       effect="taper_stroke"
       start_shape="center | center"
       end_shape="center | center"
       id="path-effect5"
       is_visible="true"
       lpeversion="1"
       stroke_width="4.26"
       subpath="1"
       attach_start="0.2"
       end_offset="0.2"
       start_smoothing="0.5"
       end_smoothing="0.5"
       jointype="extrapolated"
       miter_limit="100" /><inkscape:path-effect
       effect="powerstroke"
       id="path-effect4"
       is_visible="true"
       lpeversion="1.3"
       scale_width="1.1764706"
       interpolator_type="CentripetalCatmullRom"
       interpolator_beta="1"
       start_linecap_type="zerowidth"
       end_linecap_type="zerowidth"
       offset_points="0.27405741,0.53982741 | 1.0319315,3.3711366 | 2.194199,8.6480456"
       linejoin_type="round"
       miter_limit="4"
       not_jump="false"
       sort_points="true"
       message="&lt;b&gt;Ctrl + click&lt;/b&gt; on existing node and move it" /><inkscape:path-effect
       effect="powerstroke"
       id="path-effect3"
       is_visible="true"
       lpeversion="1.3"
       scale_width="1"
       interpolator_type="CentripetalCatmullRom"
       interpolator_beta="0.2"
       start_linecap_type="zerowidth"
       end_linecap_type="zerowidth"
       offset_points="0.45303705,4.3780696 | 1.678561,13.676644 | 2.1638158,12.335646"
       linejoin_type="round"
       miter_limit="4"
       not_jump="false"
       sort_points="true"
       message="&lt;b&gt;Ctrl + click&lt;/b&gt; on existing node and move it" /><inkscape:path-effect
       effect="fill_between_many"
       method="bsplinespiro"
       autoreverse="false"
       close="false"
       join="false"
       linkedpaths="#path4,0,1"
       id="path-effect6" /></defs><g
     inkscape:label="Layer 1"
     inkscape:groupmode="layer"
     id="layer1"
     style="display:inline"><g
       id="g6"
       transform="translate(0,-3.3361576)"
       style="fill:#ffffff;fill-opacity:1;stroke:none;stroke-opacity:1"><g
         style="fill:#ffffff;fill-opacity:1;stroke:none;stroke-opacity:1"
         id="g1"
         transform="matrix(1.3474258,-1.3474258,1.3474258,1.3474258,5.7777792,102.47269)"><g
           id="g2"
           style="fill:#ffffff;fill-opacity:1;stroke:none;stroke-opacity:1">
	<path
   d="M 50.5,50 C 49.079,50 47.825,50.675 47,51.706 46.175,50.675 44.921,50 43.5,50 42.079,50 40.825,50.675 40,51.706 39.175,50.675 37.921,50 36.5,50 35.079,50 33.825,50.675 33,51.706 32.175,50.675 30.921,50 29.5,50 28.079,50 26.825,50.675 26,51.706 25.175,50.675 23.921,50 22.5,50 21.079,50 19.825,50.675 19,51.706 18.175,50.675 16.921,50 15.5,50 14.079,50 12.825,50.675 12,51.706 11.175,50.675 9.921,50 8.5,50 6.018,50 4,52.018 4,54.5 4,56.982 6.018,59 8.5,59 9.921,59 11.175,58.325 12,57.294 12.825,58.325 14.079,59 15.5,59 16.921,59 18.175,58.325 19,57.294 19.825,58.325 21.079,59 22.5,59 23.921,59 25.175,58.325 26,57.294 26.825,58.325 28.079,59 29.5,59 30.921,59 32.175,58.325 33,57.294 33.825,58.325 35.079,59 36.5,59 37.921,59 39.175,58.325 40,57.294 40.825,58.325 42.079,59 43.5,59 44.921,59 46.175,58.325 47,57.294 47.825,58.325 49.079,59 50.5,59 52.981,59 55,56.981 55,54.5 55,52.019 52.981,50 50.5,50 Z m -35,7 C 14.121,57 13,55.878 13,54.5 13,53.122 14.121,52 15.5,52 c 1.379,0 2.5,1.122 2.5,2.5 0,1.378 -1.121,2.5 -2.5,2.5 z m 14,0 C 28.121,57 27,55.878 27,54.5 27,53.122 28.121,52 29.5,52 c 1.379,0 2.5,1.122 2.5,2.5 0,1.378 -1.121,2.5 -2.5,2.5 z m 14,0 C 42.121,57 41,55.878 41,54.5 41,53.122 42.121,52 43.5,52 c 1.379,0 2.5,1.122 2.5,2.5 0,1.378 -1.121,2.5 -2.5,2.5 z"
   id="path1-7"
   style="fill:#ffffff;fill-opacity:1;stroke:none;stroke-opacity:1" />
	<path
   d="m 5,49 h 21 6 21 c 0.553,0 1,-0.448 1,-1 0,-0.552 -0.447,-1 -1,-1 H 32 v -3 h 7.001 c 0.782,0 1.513,-0.385 1.956,-1.029 0.442,-0.645 0.539,-1.465 0.253,-2.21 -0.777,-2.022 -0.891,-3.018 -1.165,-5.421 l -0.107,-0.943 -1.105,-0.664 -0.579,-1.735 -1.323,-0.189 0.879,-0.527 -0.875,-1.75 2.28,-0.651 0.006,-0.748 c 0.037,-4.429 0.744,-8.652 1.996,-11.907 0.28,-0.73 0.184,-1.551 -0.259,-2.196 C 40.514,13.385 39.783,13 39.001,13 H 32 V 9.033 H 29.993 C 29.994,9.021 30,9.012 30,9 V 7.023 C 30,7.007 30,6.992 30,6.977 V 1 C 30,0.679 29.846,0.377 29.585,0.189 29.323,0 28.988,-0.05 28.683,0.051 l -9,3 C 19.275,3.187 19,3.569 19,4 c 0,0.431 0.275,0.813 0.684,0.949 L 28,7.72 V 9 c 0,0.012 0.006,0.022 0.007,0.033 H 26 V 13 h -7.001 c -0.782,0 -1.513,0.385 -1.956,1.029 -0.442,0.645 -0.539,1.465 -0.256,2.203 2.646,6.879 2.646,17.657 -0.003,24.543 -0.28,0.73 -0.184,1.551 0.259,2.196 C 17.486,43.615 18.217,44 18.999,44 H 26 v 3 H 5 c -0.553,0 -1,0.448 -1,1 0,0.552 0.447,1 1,1 z M 28,11.033 h 2 V 13 H 28 Z M 28,44 h 2 v 3 h -2 z"
   id="path2"
   style="fill:#ffffff;fill-opacity:1;stroke:none;stroke-opacity:1" />
</g></g><path
         style="fill:#ffffff;fill-rule:nonzero;stroke:none;stroke-width:1.12713;stroke-linecap:butt;stroke-linejoin:round;stroke-dasharray:none;stroke-dashoffset:0;stroke-opacity:1;fill-opacity:1"
         d="m 90.61994,89.989416 0,0 c 0.04871,-0.0069 0.06242,-0.223629 0.05668,-1.305396 -0.0053,-0.991638 -0.01734,-3.110503 0.206995,-5.716721 0.03461,-0.402078 0.0749,-0.817381 0.121791,-1.244291 0.361689,-3.29289 1.217041,-8.530146 3.468811,-13.870229 1.094632,-2.595924 2.540548,-5.269862 4.465021,-7.788808 1.823208,-2.386395 4.074058,-4.631732 6.869518,-6.550835 2.70819,-1.859194 5.94428,-3.424166 9.839,-4.5201 3.85298,-1.084191 8.36864,-1.714397 13.67907,-1.706672 0.67525,0.02695 1.34995,0.07363 2.02288,0.139454 4.37087,0.427552 8.91067,1.824858 13.11571,4.179816 4.47754,2.507572 8.30621,5.951651 11.00676,9.997266 2.62204,3.928001 4.04567,8.201362 4.32136,12.671661 0.27987,4.537975 -0.59398,9.650819 -3.03156,15.42681 -1.85952,4.522693 -3.79185,7.865561 -5.57201,10.379019 -1.03257,1.45792 -2.03719,2.66943 -2.97848,3.68773 -0.76482,0.8274 -1.52752,1.57484 -2.28756,2.25053 -1.63126,1.45021 -3.32414,2.6364 -5.13036,3.59263 -1.8019,0.95395 -3.71382,1.67768 -5.77319,2.21134 -4.39845,1.13979 -8.83016,1.23815 -12.22686,1.30022 -5.03546,0.092 -6.50361,0.30472 -6.97836,1.10171 -0.28952,0.48603 -0.19746,2.69205 4.28888,6.22283 2.96419,2.33282 8.15005,5.29705 14.96822,6.36621 3.25527,0.51046 6.88042,0.58123 10.70041,-0.10323 3.90425,-0.69955 7.84628,-2.16054 11.60897,-4.52795 1.72653,-1.08629 3.37918,-2.34094 4.94469,-3.75733 1.93267,-1.74858 3.79588,-3.79418 5.5556,-6.16181 3.03817,-4.08773 5.73551,-9.09027 7.98253,-15.145899 3.3022,-9.018968 3.89064,-17.917291 1.89283,-26.04753 -1.93753,-7.884988 -6.12473,-14.33077 -11.34796,-19.209886 -5.32618,-4.975293 -11.61554,-8.252702 -17.85303,-10.172019 -5.88709,-1.811494 -11.71861,-2.415348 -17.04102,-2.192475 -0.82506,0.03455 -1.64802,0.09248 -2.46745,0.174177 -5.94104,0.420191 -11.05626,1.555677 -15.44216,3.235752 -4.43832,1.700153 -8.06323,3.9325 -11.01235,6.461378 -3.035425,2.602874 -5.327867,5.496113 -7.064119,8.405236 -1.829074,3.064648 -3.062763,6.183192 -3.903065,9.077378 -1.726097,5.945058 -1.939101,11.457446 -1.889527,14.814416 0.0065,0.439063 0.01735,0.864696 0.03187,1.275948 0.0962,2.724788 0.348425,4.72951 0.522324,5.777254 0.18226,1.098127 0.287427,1.278343 0.329138,1.272416 z"
         id="path4"
         sodipodi:nodetypes="cssc"
         inkscape:path-effect="#path-effect4"
         inkscape:original-d="m 90.61994,89.989416 c 0,0 -6.37516,-44.865091 38.56739,-46.511415 23.38195,-0.856522 48.91856,19.555207 37.12589,49.931368 -16.04766,41.336381 -50.49806,20.815181 -50.49806,20.815181"
         inkscape:linked-fill="path6"
         transform="matrix(2.1245757,0,0,2.1245757,-185.51363,-72.297416)" /></g></g></svg>
